# xmcd CD database file
# Copyright (C) 1993-1998 Ti Kan
#
# Track frame offsets:
#	150
#	15252
#	27220
#	41110
#	54400
#	65287
#	78335
#	87595
#	100677
#	113937
#	127110
#	146297
#	158105
#	170775
#	184167
#	195225
#	207222
#	218440
#	229865
#	242790
#
# Disc length: 3394 seconds
#
# Revision: 0
# Processed by: cddbd v1.4b41PL1 Copyright (c) Steve Scherf et al.
# Submitted via: CDmax 1.5
#
DISCID=090d4014
DTITLE=Tammy Wynette - 20 Greatest Hits
DYEAR=1900
DGENRE=
TTITLE0=You And Me
TTITLE1=Stand By Your Man
TTITLE2='Til I Can Make It On My Own
TTITLE3=D-I-V-O-R-C-E
TTITLE4=Singing My Song
TTITLE5=Kids Say The Darndest Things
TTITLE6=Your Good Girl's Gonna Go Bad
TTITLE7=Womanhood
TTITLE8=One Of A Kind
TTITLE9=I'll See Him Through
TTITLE10=Bedtime Story
TTITLE11=I Don't Wanna Play House
TTITLE12=Take Me To Your World
TTITLE13=Apartment #9
TTITLE14=The Ways To Love A Man
TTITLE15=When He Loves Me (He Loves Me All The Way)
TTITLE16=Run, Woman, Run
TTITLE17=Good Lovin' (Makes It Right)
TTITLE18=My Man (Understands)
TTITLE19='Til I Get It Right
EXTD=
EXTT0=
EXTT1=
EXTT2=
EXTT3=
EXTT4=
EXTT5=
EXTT6=
EXTT7=
EXTT8=
EXTT9=
EXTT10=
EXTT11=
EXTT12=
EXTT13=
EXTT14=
EXTT15=
EXTT16=
EXTT17=
EXTT18=
EXTT19=
PLAYORDER=
